 <!DOCTYPE svg PUBLIC "-//W3C//DTD SVG 1.1//EN" "http://www.w3.org/Graphics/SVG/1.1/DTD/svg11.dtd">
<svg id="b1b11cf9-0812-4d08-b236-f5d349a657cc" data-name="Layer 1" xmlns="http://www.w3.org/2000/svg" width="865.76" height="682.89" viewBox="0 0 865.76 682.89">
<defs>
<style xmlns="http://www.w3.org/1999/xhtml">*, ::after, ::before { box-sizing: border-box; }
img, svg { vertical-align: middle; }
</style>
<style xmlns="http://www.w3.org/1999/xhtml">*, body, html { -webkit-font-smoothing: antialiased; }
img, svg { max-width: 100%; }
</style>
</defs>
<path d="M432.37,101.29s-74.93,14.17-80.51-1.57-9-66.65.53-74.26S478.6,9.19,487.1,23.36s9,66.39,1.06,70.59-42.77,7.34-42.77,7.34L447.51,117Z" fill="#2f2e41" data-secondary="true"/>
<path d="M419.78,69.25l-.49.12a1.37,1.37,0,0,1-1.27-.78,12.23,12.23,0,0,1-1.4-5.41c0-4.38,2.92-7,6-9.79a25.22,25.22,0,0,0,3-3.24,4.28,4.28,0,0,0,.85-2.41c0-2.34-2-3.48-4.2-3.48a11.75,11.75,0,0,0-6.75,2.7,1.59,1.59,0,0,1-.85.3,1.07,1.07,0,0,1-.91-.54l-2.13-3.12a1.11,1.11,0,0,1-.24-.78,1.5,1.5,0,0,1,.48-1.08,16.32,16.32,0,0,1,10.59-4c6.2,0,10.94,3.67,10.94,9.91,0,4-1.88,6.49-4.62,9.2L427.63,58a24.93,24.93,0,0,0-3,3.06,4,4,0,0,0-.92,2.46,7.26,7.26,0,0,0,.61,2.71,3,3,0,0,1,.12.54,1.16,1.16,0,0,1-.18.6,1.59,1.59,0,0,1-.55.42Zm-3.95,9.25a5,5,0,0,1,5-5,5,5,0,1,1,0,10A5,5,0,0,1,415.83,78.5Z" fill="#ffeae9"/>
<path d="M382.48,107.72s2-13.6,10-10.92,11.11,7.52,10.45,12-9,19-9,19l-2.36,13.43-12.36-8.31s.41-10.63.61-12.61Z" fill="#f9b499"/>
<path d="M461.93,641.7c.6,3.3-47.45,25.51-49.55,22.51s20.11-29.72,20.11-29.72l-3-7.76-3-7.85L451.11,609s2.26,6.49,4.71,13.7C458.59,630.84,461.61,639.94,461.93,641.7Z" fill="#f9b499"/>
<path d="M470.75,655.9l-17.13,5.74-5.23-10.41-2.18,12.53L415.3,672.6a7.22,7.22,0,0,1-7.57-11.53l22.11-24.44-3.19-11.13,29.58-8Z" fill="#f25500" data-primary="true"/>
<path d="M520.81,658.7c-.67,3.28-53.54,6-54.37,2.41S496.18,641,496.18,641l.13-8.31.13-8.41H523s-.32,6.86-.74,14.47C521.77,647.37,521.17,656.94,520.81,658.7Z" fill="#f9b499"/>
<path d="M527.27,671.24l-18,.81-2.16-11.45-5.54,11.45H469.37a7.23,7.23,0,0,1-4.11-13.18l28-17.41V629.89l30.63.49Z" fill="#f25500" data-primary="true"/>
<path d="M429.13,331.92s-61.55,158.2-54.45,188.18,49.71,102.18,49.71,102.18l37.09-12.63-3.16-7.1-32.75-93.1,46.56-70.23,12.23,83.25,7.1,103.75s24.85,6.71,37.87,2c0,0,13.41-184.24,8.29-211.07s-22.89-83.64-22.89-83.64Z" fill="#2f2e41" data-secondary="true"/>
<path d="M498.16,152.71a33.39,33.39,0,0,1,9.82,7.67c4.95,5.71,6.69,13.22,6.65,20.64,0,4.28-1,8.49-1.15,12.76a12.72,12.72,0,0,0,1.86,7.63c2.16,3.11,5.77,4.12,9,5.84a27.67,27.67,0,0,1,9.15,7.3c5.24,6.92,5.74,17.34,2.74,25.27a22.28,22.28,0,0,1-7.5,10.26c-4,2.87-9,4-13.88,4.31-15.16,1-30.43-1.28-45.36-3.58-10.87-1.68-21.83-3.46-32.17-7.33-8.86-3.32-16.61-8.22-19-18-2.82-11.39,3.9-24.21,15.1-28,3.6-1.21,7.89-1.59,10.41-4.77,3.16-4,1.66-9.64,1.14-14.21-.94-8.34,1-17.43,7.72-23,9.58-7.92,20.3-8.44,32.05-7A39.67,39.67,0,0,1,498.16,152.71Z" fill="#2f2e41" data-secondary="true"/>
<polygon points="497.97 192.69 495.6 225.4 464.83 225.98 465.88 218.21 466.8 211.4 493.18 196.02 497.97 192.69" fill="#f9b499"/>
<path d="M463.05,217.9l34.72-.79s0,7.1,2,10.26,22.88,18.15,26.83,30.38-11.84,77.32-11.84,77.32-59.17,11.05-85.6-3.15c0,0-12.63-30.38-8.29-63.91,0,0-71-33.14-77.72-56s32-82.85,32-82.85L398,136.63s-20.52,50.9-18.94,55.23,58.39,32.75,67.46,34.72S460,227.28,463.05,217.9Z" fill="#f25500" data-primary="true"/>
<path d="M473.55,250.59s-3.77-13.22,4.62-14.06,13.21,2.31,14.47,6.71-.42,21-.42,21l3.36,13.22-14.69-2.52s-4-9.86-4.61-11.75Z" fill="#f9b499"/>
<path d="M474.1,272.21l23.14-7.1L504.81,286l19.72-30.58s7.1,5.52,4.54,38.86S522,343,503.82,345.13C474.92,348.59,474.1,272.21,474.1,272.21Z" fill="#f25500" data-primary="true"/>
<path d="M474.1,272.21l23.14-7.1L504.81,286l19.72-30.58s7.1,5.52,4.54,38.86S522,343,503.82,345.13C474.92,348.59,474.1,272.21,474.1,272.21Z" opacity="0.2"/>
<circle cx="183.34" cy="104.64" r="71.2" transform="matrix(0.8, -0.6, 0.6, 0.8, -26.12, 130.86)" fill="none" stroke="#bcbec0" stroke-miterlimit="10" stroke-width="2"/>
<circle cx="166.14" cy="340.13" r="83.55" transform="translate(-191.85 217.1) rotate(-45)" fill="none" stroke="#bcbec0" stroke-miterlimit="10" stroke-width="2"/>
<path d="M211.05,97.29a30,30,0,1,0-42,28.33c.1,3.56.21,7.57.21,7.57l26.29-.74s0-4.25,0-8A30,30,0,0,0,211.05,97.29Z" fill="#d3d3d3"/>
<path d="M186,132.59s0-.12,0-.37,0-.62.09-1.08c.09-1,.22-2.36.43-4.17s.51-4,1-6.55a44.33,44.33,0,0,1,2.49-8.43,28.08,28.08,0,0,1,2.34-4.55,5.54,5.54,0,0,1,2-1.9,3.12,3.12,0,0,1,2.85,0,2.08,2.08,0,0,1,.9,2.7,4.28,4.28,0,0,1-2.26,2.07,8.24,8.24,0,0,1-10.62-5.16,6.21,6.21,0,0,1-.28-3.45,2.7,2.7,0,0,1,2.67-2.16,1.94,1.94,0,0,1,1.55,1,2.71,2.71,0,0,1,.3,1.85,5.88,5.88,0,0,1-2,3,9,9,0,0,1-6.93,2.22,7.8,7.8,0,0,1-5.92-4.16,4.51,4.51,0,0,1-.31-3.63,2.32,2.32,0,0,1,1.28-1.36,2.25,2.25,0,0,1,1.85.12,2.93,2.93,0,0,1,1.3,1.28,4.57,4.57,0,0,1,.51,1.71,8.63,8.63,0,0,1-.36,3.44,8.89,8.89,0,0,1-4.09,5.15,9.1,9.1,0,0,1-6.18,1,4.72,4.72,0,0,1-2.74-1.36,2.33,2.33,0,0,1-.25-2.88,2,2,0,0,1,1.33-.7,2.82,2.82,0,0,1,1.44.24,4.29,4.29,0,0,1,1.9,2c.8,1.6,1.45,3.17,2.1,4.66,2.57,6,4.41,10.91,5.65,14.33.61,1.71,1.07,3,1.38,4,.15.44.26.79.34,1s.11.36.11.36a3.56,3.56,0,0,1-.14-.34l-.38-1c-.34-.91-.82-2.23-1.45-3.92-1.28-3.41-3.15-8.32-5.75-14.28-.66-1.48-1.32-3.06-2.11-4.63a4.11,4.11,0,0,0-1.77-1.87,1.79,1.79,0,0,0-2.16,2.86,4.41,4.41,0,0,0,2.56,1.25,8.77,8.77,0,0,0,6-1,8.62,8.62,0,0,0,3.91-5,8.33,8.33,0,0,0,.35-3.3A3.3,3.3,0,0,0,177.3,99a1.89,1.89,0,0,0-1.56-.1,1.93,1.93,0,0,0-1.07,1.15,4.16,4.16,0,0,0,.3,3.34,7.42,7.42,0,0,0,5.64,4,8.57,8.57,0,0,0,6.64-2.13,5.55,5.55,0,0,0,1.91-2.83,2.4,2.4,0,0,0-.25-1.6,1.58,1.58,0,0,0-1.27-.83,2.09,2.09,0,0,0-1.48.52,2.6,2.6,0,0,0-.81,1.37,5.92,5.92,0,0,0,.26,3.25,8,8,0,0,0,4.18,4.69,7.88,7.88,0,0,0,6,.28,4,4,0,0,0,2.1-1.89,1.77,1.77,0,0,0-.76-2.31,2.81,2.81,0,0,0-2.57,0,5.29,5.29,0,0,0-1.9,1.8,28.37,28.37,0,0,0-2.33,4.5,44.19,44.19,0,0,0-2.53,8.36c-.52,2.52-.83,4.73-1.07,6.53s-.38,3.19-.5,4.15c-.05.47-.1.83-.13,1.09S186,132.59,186,132.59Z" fill="#fff"/>
<path d="M193.61,137.69H171a1.7,1.7,0,0,1-1.7-1.69h0a1.7,1.7,0,0,1,1.7-1.7h22.58a1.7,1.7,0,0,1,1.69,1.7h0A1.69,1.69,0,0,1,193.61,137.69Z" fill="#d3d3d3"/>
<path d="M193.69,138.85l-22.57.64a1.69,1.69,0,1,0,.1,3.38l2.47-.07,3.47,6.17a2.19,2.19,0,0,0,2,1.11l8.06-.23a2.16,2.16,0,0,0,1.9-1.24l3-6.32,1.69,0a1.7,1.7,0,0,0-.1-3.39Z" fill="#d3d3d3"/>
<rect x="116.04" y="300.55" width="99.02" height="79.16" transform="translate(-4.56 2.26) rotate(-0.77)" fill="#ececec"/>
<rect x="119.45" y="305.53" width="92.06" height="69.19" transform="translate(-4.56 2.26) rotate(-0.77)" fill="#e1e1e1"/>
<polygon points="120.11 375.35 151.68 331.91 171.96 358.55 185.28 343.99 212.16 374.12 120.11 375.35" fill="#d3d3d3"/>
<path d="M180,323.28a7.25,7.25,0,1,1-7.35-7.15A7.25,7.25,0,0,1,180,323.28Z" fill="#d3d3d3"/>
<circle cx="231.4" cy="190.75" r="10.51" fill="#bcbec0"/>
<circle cx="268.34" cy="396.85" r="10.51" fill="#bcbec0"/>
<circle cx="699.63" cy="331.92" r="83.55" transform="translate(-29.78 591.93) rotate(-45)" fill="none" stroke="#bcbec0" stroke-miterlimit="10" stroke-width="2"/>
<circle cx="597.42" cy="388.64" r="10.51" fill="#bcbec0"/>
<circle cx="639.68" cy="95.49" r="45.17" transform="translate(179.62 550.08) rotate(-53.15)" fill="none" stroke="#bcbec0" stroke-miterlimit="10" stroke-width="2"/>
<circle cx="609.18" cy="150.13" r="6.67" fill="#bcbec0"/>
<path d="M657.45,91.92a10.39,10.39,0,0,0-2.34-5.8,10,10,0,0,0-5-3.51,8.17,8.17,0,0,0-6.37.87A8,8,0,0,0,641,86.24a8.08,8.08,0,0,0-2.25-2.74,8.22,8.22,0,0,0-6.22-1.61,10.14,10.14,0,0,0-5.4,2.9,10.39,10.39,0,0,0-3,5.49,12.64,12.64,0,0,0,1.11,7.87,17.93,17.93,0,0,0,5.83,6.14c3.89,2.66,9,6,9,6s4.68-3.09,8.85-5.28a17.89,17.89,0,0,0,6.5-5.41A12.63,12.63,0,0,0,657.45,91.92Z" fill="#d3d3d3"/>
<path d="M688.15,346.52a10,10,0,1,1-3.65-13.59A10,10,0,0,1,688.15,346.52Z" fill="#d3d3d3"/>
<path d="M688.55,342.93c-.95.13-2.73-10.29-2.24-23.14s1.28-23,2.17-23.07,1.79,10.43,1.28,23.16S689.49,342.82,688.55,342.93Z" fill="#d3d3d3"/>
<path d="M719.9,304c.32.74-7.24,4.2-17.21,2.81A23.23,23.23,0,0,1,691,302c-2.59-2.16-3.22-4.31-2.86-4.49s1.69,1.13,4.26,2.49a31.79,31.79,0,0,0,10.81,3.4C712.13,304.67,719.65,302.92,719.9,304Z" fill="#d3d3d3"/>
<path d="M719.56,353.78a10,10,0,1,1-3.65-13.6A10,10,0,0,1,719.56,353.78Z" fill="#d3d3d3"/>
<path d="M720,350.19c-1,.12-2.73-10.3-2.25-23.15S719,304,719.9,304s1.79,10.43,1.28,23.16S720.91,350.07,720,350.19Z" fill="#d3d3d3"/>
<path d="M720,310.77c.45.79-6.56,4.57-16,3.59s-15.53-6-14.93-6.65c.52-.87,6.82,2.45,15.27,3.22S719.62,309.82,720,310.77Z" fill="#d3d3d3"/>
<path d="M465.88,218.21l.92-6.81s12.14,5.82,25-8.33C491.84,203.07,490.46,219.2,465.88,218.21Z" fill="#f4a48e"/>
<path d="M474.72,215.6s-15.38,2-23-36c-.63-3.16-2.36-11.47,1.68-16.9,4.21-5.63,7.31-8.88,22.2-10,.85-.06,1.69-.09,2.51-.09,6.54,0,11.94,2,15.61,5.8,3.89,4,5.59,9.69,4.93,16.44-.71,7.37-1.27,9-1.81,10.57-.47,1.39-.91,2.7-1.47,7.83,0,.3,0,7.29-1.69,9.74C493.7,203.05,485.64,214.08,474.72,215.6Z" fill="#f9b499"/>
<path d="M476.8,149.63a21.59,21.59,0,0,0,.58,11.81A37.45,37.45,0,0,0,483,172c3.63,5,8.22,9.49,14,11.62a47,47,0,0,0,.39,5.43.54.54,0,0,0,.08.28c.15.17.42.08.62,0l8-4.39c1.35-2.71,1.23-5.73,1.34-8.77a33.9,33.9,0,0,0-.11-5.61c-.68-5.19-3.82-9.86-7.89-13.14a37.7,37.7,0,0,0-14.11-6.63A26.59,26.59,0,0,0,476.8,149.63Z" fill="#2f2e41" data-secondary="true"/>
<path d="M500.92,186c2.5-1.42,5.43-1.46,7.69,1.37a5.65,5.65,0,0,1,.8,1.36,8.58,8.58,0,0,1-1.74,9.05,9.42,9.42,0,0,1-8.85,2.18c-3-1-3.61-4.19-3.06-7A11.11,11.11,0,0,1,500.92,186Z" fill="#f9b499"/>
</svg>